<?xml version="1.0" encoding="iso-8859-1"?>
<!-- Generator: Adobe Illustrator 19.0.0, SVG Export Plug-In . SVG Version: 6.00 Build 0)  -->
<svg version="1.1" id="Layer_1" xmlns="http://www.w3.org/2000/svg" xmlns:xlink="http://www.w3.org/1999/xlink" x="0px" y="0px"
	 viewBox="0 0 512 512" style="enable-background:new 0 0 512 512;" xml:space="preserve">
<polygon style="fill:#134A79;" points="153.971,339.478 153.971,306.087 55.652,306.087 55.652,478.609 33.391,478.609 33.391,512 
	111.304,512 111.304,478.609 89.043,478.609 89.043,339.478 "/>
<polygon style="fill:#092339;" points="456.348,478.609 456.348,306.087 358.029,306.087 358.029,339.478 422.957,339.478 
	422.957,478.609 400.696,478.609 400.696,512 478.609,512 478.609,478.609 "/>
<path style="fill:#A4C6E2;" d="M256,0c-73.766,0-133.565,59.799-133.565,133.565l155.826,22.261L256,0z"/>
<path style="fill:#4A8EC6;" d="M389.565,133.565C389.565,59.799,329.766,0,256,0v155.826L389.565,133.565z"/>
<path style="fill:#FAC15C;" d="M256,289.391l22.261-111.304l-155.826,22.261c0,95.711,0,233.739,0,233.739h89.043L256,289.391z"/>
<path style="fill:#F9B233;" d="M256,289.391l44.522,144.696h89.043c0,0,0-138.029,0-233.739L256,178.087V289.391z"/>
<polygon style="fill:#4A8EC6;" points="211.478,289.391 211.478,434.087 256,434.087 267.13,361.739 256,289.391 "/>
<path style="fill:#1D71B8;" d="M256,133.565H122.435c0,16.214,0,39.819,0,66.783H256l22.261-33.391L256,133.565z"/>
<path style="fill:#134A79;" d="M256,133.565v66.783h133.565c0-26.963,0-50.569,0-66.783H256z"/>
<rect x="256" y="289.391" style="fill:#1D71B8;" width="44.522" height="144.696"/>
<g>
</g>
<g>
</g>
<g>
</g>
<g>
</g>
<g>
</g>
<g>
</g>
<g>
</g>
<g>
</g>
<g>
</g>
<g>
</g>
<g>
</g>
<g>
</g>
<g>
</g>
<g>
</g>
<g>
</g>
</svg>
