<?xml version="1.0" encoding="iso-8859-1"?>
<!-- Generator: Adobe Illustrator 19.0.0, SVG Export Plug-In . SVG Version: 6.00 Build 0)  -->
<svg version="1.1" id="Layer_1" xmlns="http://www.w3.org/2000/svg" xmlns:xlink="http://www.w3.org/1999/xlink" x="0px" y="0px"
	 viewBox="0 0 512 512" style="enable-background:new 0 0 512 512;" xml:space="preserve">
<polygon style="fill:#134A79;" points="222.609,411.826 222.609,512 256,512 267.13,411.826 "/>
<g>
	<rect x="256" y="411.826" style="fill:#092339;" width="33.391" height="100.174"/>
	<rect x="356.174" y="411.826" style="fill:#092339;" width="66.783" height="100.174"/>
</g>
<rect x="89.043" y="411.826" style="fill:#134A79;" width="66.783" height="100.174"/>
<polygon style="fill:#77AAD4;" points="258.283,411.826 278.261,217.043 256,0 254.887,0 0,431.861 0,434.087 105.739,434.087 
	122.435,411.826 139.13,434.087 239.304,434.087 "/>
<polygon style="fill:#4A8EC6;" points="257.113,0 256,0 256,411.826 272.696,434.087 372.87,434.087 389.565,411.826 
	406.261,434.087 512,434.087 512,431.861 "/>
<rect x="372.87" y="356.174" style="fill:#A4C6E2;" width="33.391" height="77.913"/>
<rect x="239.304" y="356.174" style="fill:#D2E3F1;" width="33.391" height="77.913"/>
<g>
	<rect x="239.304" y="286.431" style="fill:#134A79;" width="33.391" height="33.391"/>
	<rect x="306.087" y="286.431" style="fill:#134A79;" width="33.391" height="33.391"/>
</g>
<rect x="172.522" y="286.431" style="fill:#1D71B8;" width="33.391" height="33.391"/>
<rect x="105.739" y="356.174" style="fill:#D2E3F1;" width="33.391" height="77.913"/>
<polygon style="fill:#FFFFFF;" points="255.13,130.977 194.692,233.377 256,233.377 267.13,182.177 256,130.977 "/>
<polygon style="fill:#FAC15C;" points="256.87,130.977 256,130.977 256,233.377 317.308,233.377 "/>
<g>
</g>
<g>
</g>
<g>
</g>
<g>
</g>
<g>
</g>
<g>
</g>
<g>
</g>
<g>
</g>
<g>
</g>
<g>
</g>
<g>
</g>
<g>
</g>
<g>
</g>
<g>
</g>
<g>
</g>
</svg>
